<svg xmlns="http://www.w3.org/2000/svg" viewBox="0 0 256 256" role="img" aria-label="Orange home improvement bucket token">
  <defs>
    <linearGradient id="bucketBody" x1="0%" y1="0%" x2="0%" y2="100%">
      <stop offset="0%" stop-color="#f7901e"/>
      <stop offset="100%" stop-color="#d96d00"/>
    </linearGradient>
    <linearGradient id="bucketRim" x1="0%" y1="0%" x2="0%" y2="100%">
      <stop offset="0%" stop-color="#ffb252"/>
      <stop offset="100%" stop-color="#e37d08"/>
    </linearGradient>
    <radialGradient id="bucketShadow" cx="50%" cy="50%" r="50%">
      <stop offset="0%" stop-color="#000000" stop-opacity="0.2"/>
      <stop offset="100%" stop-color="#000000" stop-opacity="0"/>
    </radialGradient>
  </defs>
  <ellipse cx="128" cy="224" rx="72" ry="18" fill="url(#bucketShadow)"/>
  <path d="M80 78c0-28 21-48 48-48s48 20 48 48" fill="none" stroke="#6d7782" stroke-linecap="round" stroke-width="12"/>
  <path d="M94 85h68c12 0 20 10 18 22l-10 89c-2 18-18 30-36 30h-12c-18 0-34-12-36-30l-10-89c-2-12 6-22 18-22Z" fill="url(#bucketBody)"/>
  <path d="M86 90h84c10 0 18 8 18 18v9H68v-9c0-10 8-18 18-18Z" fill="url(#bucketRim)"/>
  <rect x="86" y="118" width="84" height="56" rx="14" fill="#fff4e8" opacity="0.94"/>
  <path d="M98 161v-28h13c12 0 18 6 18 14s-6 14-18 14Zm13-10c4 0 7-1 7-4s-3-4-7-4h-2v8Zm22 10v-28h11l9 12 9-12h11v28h-11v-12l-9 11-9-11v12Z" fill="#d96d00"/>
  <path d="M97 78h62" fill="none" stroke="#ffffff" stroke-linecap="round" stroke-opacity="0.35" stroke-width="6"/>
</svg>
